<?xml version="1.0" encoding="utf-8"?>
<!-- Generator: Adobe Illustrator 16.0.0, SVG Export Plug-In . SVG Version: 6.00 Build 0)  -->
<!DOCTYPE svg PUBLIC "-//W3C//DTD SVG 1.1//EN" "http://www.w3.org/Graphics/SVG/1.1/DTD/svg11.dtd">
<svg version="1.1" xmlns="http://www.w3.org/2000/svg" xmlns:xlink="http://www.w3.org/1999/xlink" x="0px" y="0px" width="200px"
	 height="200px" viewBox="0 0 200 200" enable-background="new 0 0 200 200" xml:space="preserve">
<g id="Layer_1">
</g>
<g id="Layer_2">
	<g>
		<path fill="#FFFFFF" d="M177.805,181.708L166.747,60.217c-0.27-2.855-2.643-5.046-5.501-5.046h-27.615V44.147
			c0-18.291-14.86-33.147-33.145-33.147c-18.257,0-33.144,14.856-33.144,33.147v11.023H39.728c-2.858,0-5.232,2.19-5.502,5.046
			L23.196,181.708c-0.135,1.564,0.377,3.075,1.429,4.234c1.025,1.133,2.509,1.807,4.072,1.807h16.146
			c0.036,0.001,0.07,0.011,0.106,0.011c2.197,0,3.979-1.781,3.979-3.979c0-2.161-1.726-3.91-3.872-3.968v-0.016l-13.382-0.042
			l9.305-117.316L67.343,62.5v16.295c-3.29,1.921-5.502,5.447-5.502,9.522c0,6.095,4.936,11.061,11.03,11.061
			s11.058-4.966,11.058-11.061c0-4.076-2.239-7.601-5.529-9.522V61.75L122.573,62v16.795c-3.29,1.921-5.501,5.447-5.501,9.522
			c0,6.095,4.935,11.061,11.03,11.061c6.094,0,11.057-4.966,11.057-11.061c0-4.076-2.238-7.601-5.528-9.522V61.5l26.538-0.25
			l9.563,118.938L96.98,179.96c-0.104-0.008-0.205-0.031-0.312-0.031c-2.163,0-3.916,1.752-3.916,3.915s1.753,3.916,3.916,3.916
			c0.036,0,0.07-0.01,0.106-0.011h75.527c1.537,0,3.021-0.674,4.072-1.807C177.399,184.783,177.939,183.272,177.805,181.708z
			 M122.573,55.171H78.399V44.147c0-12.193,9.925-22.087,22.087-22.087c12.19,0,22.087,9.894,22.087,22.087V55.171z"/>
	</g>
</g>
</svg>
