<?xml version="1.0" encoding="iso-8859-1"?>
<!-- Generator: Adobe Illustrator 19.1.0, SVG Export Plug-In . SVG Version: 6.00 Build 0)  -->
<svg xmlns="http://www.w3.org/2000/svg" xmlns:xlink="http://www.w3.org/1999/xlink" version="1.1" id="Capa_1" x="0px" y="0px" viewBox="0 0 98.659 98.659" style="enable-background:new 0 0 98.659 98.659;" xml:space="preserve" width="512px" height="512px">
<path d="M4.179,92.803c-0.424,0.001-0.835-0.029-1.231-0.092c-1.133-0.177-2.024-0.821-2.51-1.815  c-1.554-3.183,0.958-10.135,8.669-23.997c1.688-3.033,3.58-5.569,5.488-7.633c0.428-3.531,1.991-8.176,5.533-14.259  c3.03-5.205,5.881-8.276,8.363-10.042c0.108-0.518,0.237-1.02,0.373-1.492c1.659-5.76,7.123-10.613,7.355-10.817  c0.62-0.546,1.568-0.486,2.115,0.136c0.548,0.622,0.487,1.569-0.134,2.117c-0.046,0.04-4.261,3.794-6.042,8.207  c1.914-0.562,3.405-0.365,4.321-0.098c2.851,0.83,4.838,3.487,4.726,6.318c-0.095,2.39-1.713,4.198-4.223,4.718  c-3.32,0.686-5.773,0.201-7.292-1.438c-0.897-0.97-1.337-2.203-1.484-3.52c-1.64,1.617-3.485,3.983-5.487,7.421  c-1.942,3.337-3.355,6.424-4.22,9.153c1.616-1.246,3.146-2.141,4.464-2.697c6.43-2.717,11.38-0.387,13.258,2.93  c1.638,2.894,1.555,7.729-4.067,11.827c-5.06,3.689-11.299,4.053-14.832,0.864c-1.032-0.932-2.142-2.437-2.617-4.79  c-1.033,1.353-2.039,2.869-2.977,4.554c-8.783,15.79-9.155,20.074-8.595,21.222c0.04,0.081,0.066,0.135,0.278,0.168  c3.747,0.596,10.447-3.297,15.342-6.135l1.343-0.776c4.487-2.578,7.267-0.198,8.761,1.082c0.126,0.107,0.272,0.233,0.41,0.346  c0.137-0.433,0.182-1.077,0.227-1.706c0.128-1.805,0.32-4.533,3.227-5.744c2.019-0.84,3.409-0.303,4.223,0.293  c2.429,1.779,2.342,5.905,2.191,7.598c-0.106,1.212,0.32,1.944,0.634,2.141c0.099,0.062,0.148,0.063,0.257,0  c0.593-0.354,1.634-2.262,1.332-6.956c-0.285-4.45,0.033-6.375,1.217-7.356c1.061-0.878,2.324-0.555,3.246-0.319  c1.195,0.309,1.855,0.431,2.677-0.327c1.172-1.083,2.102-2.406,3.087-3.808c2.067-2.941,4.41-6.275,9.865-9.203  c1.635-0.878,3.203-2.136,4.595-3.601c-1.01,0.237-2.041,0.464-3.096,0.681c-5.578,1.149-10.59-0.636-12.767-4.542  c-1.832-3.288-1.152-7.255,1.774-10.352c4.589-4.861,10.455-6.268,17.438-4.173c2.935,0.88,4.723,3.062,5.034,6.142  c0.223,2.199-0.312,4.705-1.398,7.186c12.034-3.957,22.875-10.779,22.624-22.511c-0.013-0.625-0.11-1.195-0.283-1.701  c0.013,1.473-0.207,3.029-0.66,4.662c-0.978,3.523-3.176,6.031-5.878,6.708c-1.874,0.467-3.745-0.046-5.012-1.374  c-0.997-1.046-2.461-3.491-1.065-8.112c1.403-4.643,4.668-6.916,7.745-7.376c-2.418-3.137-7.256-5.519-14.406-7.088  c-1.521-0.334-3.194-0.733-4.961-1.153c-10.207-2.434-25.629-6.108-29.007-0.223c-1.397,2.44-1.721,4.551-0.933,6.103  c0.567,1.119,1.618,1.708,2.406,1.796c1.82,0.203,4.472-0.689,5.339-1.05c0.436-0.183,0.932-0.147,1.338,0.093  c0.406,0.239,0.677,0.656,0.729,1.125c0,0,0-0.001,0.001-0.001c0.008,0,0.539,1.876,4.885,3.708  c4.545,1.912,8.099-1.406,8.134-1.439c0.424-0.404,1.043-0.524,1.586-0.311c0.544,0.215,0.913,0.727,0.946,1.31  c0.013,0.157,0.377,4.198,5.517,6.645c5.483,2.611,7.267,2.787,7.34,2.794c0.808,0.068,1.436,0.767,1.393,1.576  c-0.044,0.81-0.724,1.415-1.511,1.421c-0.357-0.009-2.449-0.195-8.512-3.082c-4.09-1.947-5.868-4.783-6.638-6.789  c-2.014,1.146-5.416,2.324-9.421,0.641c-3.573-1.507-5.244-3.188-6.024-4.424c-1.384,0.438-3.562,0.969-5.433,0.767  c-1.941-0.217-3.806-1.56-4.751-3.421c-0.883-1.74-1.426-4.706,1.006-8.951c4.491-7.836,19.913-4.158,32.305-1.204  c1.748,0.416,3.403,0.811,4.908,1.142c8.767,1.924,14.308,4.984,16.939,9.355c0.2,0.333,0.383,0.674,0.548,1.021  c2.669,0.985,4.359,3.5,4.43,6.771c0.257,12.025-9.288,21.054-27.727,26.364c-2.086,3.082-4.924,5.83-8.058,7.514  c-4.829,2.593-6.863,5.486-8.83,8.285c-1.08,1.536-2.1,2.987-3.507,4.286c-2.058,1.902-4.186,1.358-5.456,1.03  c-0.191-0.049-0.431-0.109-0.609-0.144c-0.128,0.414-0.316,1.58-0.115,4.721c0.435,6.757-1.562,8.994-2.792,9.726  c-1.068,0.637-2.334,0.623-3.387-0.036c-1.439-0.903-2.216-2.799-2.026-4.946c0.24-2.709-0.337-4.445-0.976-4.913  c-0.104-0.077-0.421-0.307-1.296,0.057c-1.091,0.454-1.254,1.277-1.39,3.187c-0.097,1.365-0.206,2.913-1.313,4.021  c-1.652,1.648-3.419,0.134-4.269-0.596c-1.371-1.174-2.665-2.283-5.313-0.758l-1.334,0.771C15.142,89.173,8.878,92.803,4.179,92.803  z M17.51,60.568c-0.155,2.564,0.442,4.553,1.822,5.798c2.447,2.207,7.199,1.751,11.055-1.061c3.315-2.417,4.581-5.528,3.224-7.926  c-1.243-2.197-4.737-3.65-9.479-1.644C22.341,56.492,19.955,58.09,17.51,60.568z M63.435,38.947c-3.596,0-6.664,1.384-9.298,4.173  c-2.025,2.144-2.523,4.697-1.335,6.832c1.16,2.081,4.353,4.131,9.541,3.064c2.183-0.45,4.421-0.976,6.658-1.59  c1.702-2.773,2.682-5.729,2.442-8.096c-0.189-1.871-1.142-3.039-2.911-3.57C66.725,39.219,65.029,38.947,63.435,38.947z   M31.233,36.742c-0.216,1.762,0.006,3.128,0.66,3.834c0.943,1.017,2.959,0.855,4.482,0.54c1.16-0.24,1.794-0.897,1.834-1.899  c0.049-1.232-0.835-2.814-2.567-3.319C34.974,35.705,33.428,35.508,31.233,36.742z M91.67,23.42c-2.239,0-4.912,1.591-6.044,5.334  c-0.688,2.278-0.551,4.213,0.366,5.176c0.525,0.552,1.274,0.739,2.111,0.533c1.642-0.411,3.03-2.131,3.716-4.601  c0.675-2.43,0.738-4.553,0.185-6.43C91.894,23.425,91.783,23.42,91.67,23.42z" fill="#FFFFFF"/>
<g>
</g>
<g>
</g>
<g>
</g>
<g>
</g>
<g>
</g>
<g>
</g>
<g>
</g>
<g>
</g>
<g>
</g>
<g>
</g>
<g>
</g>
<g>
</g>
<g>
</g>
<g>
</g>
<g>
</g>
</svg>
