<?xml version="1.0" encoding="utf-8"?>
<!-- Generator: Adobe Illustrator 16.0.0, SVG Export Plug-In . SVG Version: 6.00 Build 0)  -->
<!DOCTYPE svg PUBLIC "-//W3C//DTD SVG 1.1//EN" "http://www.w3.org/Graphics/SVG/1.1/DTD/svg11.dtd">
<svg version="1.1" xmlns="http://www.w3.org/2000/svg" xmlns:xlink="http://www.w3.org/1999/xlink" x="0px" y="0px" width="200px"
	 height="200px" viewBox="0 0 200 200" enable-background="new 0 0 200 200" xml:space="preserve">
<g id="Layer_1">
</g>
<g id="Layer_2">
	<path d="M188.991,41.489"/>
	<g>
		<path fill="#FFFFFF" d="M100,11c-49.045,0-88.946,39.901-88.946,88.946c0,24.717,10.415,48.525,28.567,65.313
			c1.471,1.358,3.759,1.271,5.117-0.196c1.358-1.47,1.268-3.76-0.201-5.117c-16.68-15.426-26.242-37.294-26.242-60
			c0-45.052,36.651-81.705,81.705-81.705c45.05,0,81.704,36.652,81.704,81.705c0,45.05-36.654,81.706-81.704,81.706
			c-2,0-3.621,1.62-3.621,3.621c0,1.996,1.621,3.619,3.621,3.619c49.045,0,88.945-39.9,88.945-88.946
			C188.945,50.901,149.045,11,100,11z"/>
		<path fill="#FFFFFF" d="M61.846,65.413h76.308c1.998,0,3.621-1.621,3.621-3.621c0-1.997-1.623-3.621-3.621-3.621H61.846
			c-1.997,0-3.621,1.624-3.621,3.621C58.225,63.792,59.849,65.413,61.846,65.413z"/>
		<path fill="#FFFFFF" d="M61.846,103.567h76.308c1.998,0,3.621-1.624,3.621-3.622c0-2-1.623-3.621-3.621-3.621H61.846
			c-1.997,0-3.621,1.621-3.621,3.621C58.225,101.943,59.849,103.567,61.846,103.567z"/>
		<path fill="#FFFFFF" d="M141.774,138.101c0-2.001-1.623-3.621-3.621-3.621H61.846c-1.997,0-3.621,1.62-3.621,3.621
			c0,1.997,1.624,3.621,3.621,3.621h76.308C140.151,141.722,141.774,140.098,141.774,138.101z"/>
	</g>
</g>
</svg>
